<svg width="38" height="38" viewBox="0 0 38 38" fill="none" xmlns="http://www.w3.org/2000/svg">
<path fill-rule="evenodd" clip-rule="evenodd" d="M33.3469 18.6131C33.348 21.8111 32.2511 24.9124 30.2395 27.3985C28.2279 29.8846 25.4237 31.6045 22.2959 32.2708C19.1681 32.937 15.9064 32.5091 13.0563 31.0586C10.2063 29.6082 7.94061 27.2231 6.63837 24.3023L2.32343 26.0549C4.03397 29.9742 7.04174 33.1851 10.8411 35.1477C14.6404 37.1103 18.9996 37.7051 23.1858 36.8318C27.372 35.9586 31.13 33.6708 33.8278 30.3529C36.5257 27.035 37.999 22.8894 38 18.6131C38.0002 14.7285 36.7849 10.9412 34.5245 7.78202C32.2641 4.62281 29.0719 2.25001 25.3952 0.99618C21.7186 -0.25765 17.7417 -0.329673 14.0221 0.790206C10.3024 1.91009 7.02636 4.16574 4.65306 7.24103V1.55189H0V13.9601L2.32653 16.2866H13.1837V11.6335H7.296C8.83184 8.97095 11.2036 6.88975 14.0431 5.71287C16.8826 4.53599 20.0312 4.32925 23.0003 5.12472C25.9694 5.92019 28.5928 7.6734 30.4637 10.1123C32.3345 12.5512 33.348 15.5393 33.3469 18.6131V18.6131Z" fill="#F8F8F8"/>
</svg>
